<!DOCTYPE svg PUBLIC "-//W3C//DTD SVG 20010904//EN" "http://www.w3.org/TR/2001/REC-SVG-20010904/DTD/svg10.dtd">
<svg version="1.0" xmlns="http://www.w3.org/2000/svg" width="720px" height="720px" viewBox="0 0 7200 7200" preserveAspectRatio="xMidYMid meet">
<g id="layer101" fill="#0d4e7d" stroke="none">
 <path d="M2960 7173 c-74 -13 -169 -28 -210 -33 -174 -21 -512 -144 -800 -291 -252 -128 -458 -265 -673 -444 -584 -489 -974 -1085 -1192 -1825 -9 -30 -20 -86 -24 -125 -5 -38 -20 -135 -34 -215 -25 -143 -26 -153 -26 -640 0 -487 1 -497 26 -640 14 -80 29 -176 34 -215 8 -73 19 -114 71 -275 106 -327 288 -691 485 -968 293 -412 694 -780 1143 -1049 287 -172 777 -367 985 -393 39 -5 136 -20 217 -34 146 -25 149 -25 665 -23 517 2 518 2 673 30 85 15 182 32 215 38 68 12 352 104 447 144 436 188 769 400 1101 702 504 460 851 1021 1052 1703 9 30 20 87 24 125 5 39 20 135 34 215 25 143 26 153 26 638 0 484 -1 496 -26 640 -14 81 -29 179 -34 217 -4 39 -15 95 -24 125 -130 443 -329 846 -581 1183 -277 369 -631 695 -1024 941 -317 199 -827 409 -1055 436 -38 4 -136 19 -217 33 -145 25 -154 26 -645 25 -480 0 -503 -1 -633 -25z"/>
 </g>
<g id="layer102" fill="#1569a6" stroke="none">
 <path d="M2960 7173 c-74 -13 -169 -28 -210 -33 -174 -21 -512 -144 -800 -291 -252 -128 -458 -265 -673 -444 -584 -489 -974 -1085 -1192 -1825 -9 -30 -20 -86 -24 -125 -5 -38 -20 -135 -34 -215 -25 -143 -26 -153 -26 -640 0 -487 1 -497 26 -640 14 -80 29 -176 34 -215 8 -73 19 -114 71 -275 106 -327 288 -691 485 -968 293 -412 694 -780 1143 -1049 287 -172 777 -367 985 -393 39 -5 136 -20 217 -34 146 -25 149 -25 665 -23 517 2 518 2 673 30 85 15 182 32 215 38 68 12 352 104 447 144 436 188 769 400 1101 702 504 460 851 1021 1052 1703 9 30 20 87 24 125 5 39 20 135 34 215 25 143 26 153 26 638 0 484 -1 496 -26 640 -14 81 -29 179 -34 217 -4 39 -15 95 -24 125 -130 443 -329 846 -581 1183 -277 369 -631 695 -1024 941 -317 199 -827 409 -1055 436 -38 4 -136 19 -217 33 -145 25 -154 26 -645 25 -480 0 -503 -1 -633 -25z m1648 -1702 c53 -49 156 -148 227 -220 l130 -131 -365 4 c-365 5 -520 12 -520 24 0 13 405 412 418 412 7 0 56 -40 110 -89z m-803 -1571 c77 -77 135 -140 130 -140 -6 0 -44 11 -86 25 -173 55 -315 55 -496 1 -292 -88 -512 -313 -595 -611 -19 -67 -22 -105 -22 -235 0 -139 3 -163 26 -232 14 -43 23 -78 19 -78 -14 0 -601 596 -601 610 0 9 123 138 274 289 l274 274 41 -22 c62 -31 91 -27 153 21 202 161 399 235 633 237 l110 1 140 -140z"/>
 </g>
<g id="layer103" fill="#1b88d8" stroke="none">
 <path d="M2965 7174 c-71 -13 -164 -28 -207 -33 -117 -14 -330 -80 -508 -156 -47 -20 -97 -41 -111 -46 -76 -29 -390 -196 -483 -258 -38 -25 -90 -59 -116 -76 -237 -153 -576 -468 -796 -740 -249 -308 -495 -765 -609 -1130 -20 -66 -44 -140 -52 -165 -8 -25 -18 -79 -23 -120 -5 -41 -20 -140 -34 -220 -24 -141 -25 -159 -25 -625 -1 -271 3 -506 9 -540 5 -33 17 -100 26 -150 9 -49 20 -121 24 -160 3 -38 14 -92 22 -120 9 -27 31 -97 49 -155 68 -219 256 -636 323 -717 12 -16 39 -59 60 -98 62 -115 279 -404 361 -480 12 -11 43 -47 71 -79 94 -113 451 -421 580 -501 18 -11 63 -40 101 -66 134 -89 191 -121 383 -216 180 -89 231 -110 350 -150 25 -8 72 -25 105 -37 33 -13 76 -27 95 -31 19 -4 55 -14 80 -22 25 -8 77 -18 115 -23 39 -4 133 -20 210 -33 138 -26 148 -26 635 -26 486 0 498 1 635 26 77 14 173 29 213 33 41 5 95 15 120 24 72 23 171 55 237 75 209 66 544 232 785 389 211 137 547 419 665 558 28 32 72 81 98 109 100 105 291 365 350 477 14 26 34 59 45 73 62 79 274 542 307 672 8 32 21 74 29 93 27 68 49 156 57 225 4 39 19 135 33 215 24 141 25 158 25 630 0 267 -4 508 -9 535 -18 98 -43 251 -50 315 -8 75 -84 328 -142 475 -56 142 -199 431 -277 558 -236 387 -573 759 -935 1031 -103 78 -287 200 -366 244 -92 51 -330 168 -410 201 -41 18 -91 39 -110 48 -111 50 -362 124 -455 134 -38 4 -134 19 -212 33 -140 24 -150 25 -640 24 -480 -1 -503 -1 -628 -24z m1305 -1359 l695 -695 -1349 0 c-1309 0 -1389 2 -1426 28 -8 6 1355 1362 1370 1362 8 0 327 -313 710 -695z m-2142 -792 c6 -27 14 -73 18 -103 19 -181 87 -417 164 -569 61 -123 174 -284 267 -382 90 -94 233 -209 260 -209 9 0 52 28 97 61 100 75 244 149 362 184 72 22 115 28 229 32 l140 5 140 -141 c77 -78 135 -141 129 -141 -6 0 -36 9 -68 20 -31 10 -105 26 -164 36 -103 15 -112 15 -222 -4 -265 -45 -471 -176 -608 -385 -143 -220 -180 -487 -100 -735 11 -34 18 -67 16 -73 -4 -13 -1558 1546 -1558 1563 0 12 869 888 881 888 3 0 10 -21 17 -47z"/>
 </g>
<g id="layer104" fill="#ffffff" stroke="none">
 <path d="M2182 5110 c-34 -14 -45 -55 -38 -151 13 -190 81 -439 166 -608 61 -123 174 -284 267 -382 90 -94 233 -209 260 -209 9 0 52 28 97 61 101 77 245 149 367 186 90 27 103 28 299 28 184 0 213 -2 285 -23 115 -33 287 -119 381 -190 45 -34 88 -62 97 -62 27 0 170 115 263 212 201 211 346 497 405 801 29 146 32 299 6 324 -17 17 -87 18 -1425 20 -833 1 -1416 -2 -1430 -7z"/>
 <path d="M3465 3811 c-372 -67 -645 -330 -719 -695 -69 -337 86 -702 378 -891 302 -195 674 -190 976 15 224 152 370 435 370 713 -1 354 -224 680 -552 807 -80 31 -261 70 -323 69 -16 0 -75 -9 -130 -18z"/>
 </g>

</svg>