<!DOCTYPE svg PUBLIC "-//W3C//DTD SVG 20010904//EN" "http://www.w3.org/TR/2001/REC-SVG-20010904/DTD/svg10.dtd">
<svg version="1.0" xmlns="http://www.w3.org/2000/svg" width="1407px" height="364px" viewBox="0 0 14070 3640" preserveAspectRatio="xMidYMid meet">
<g id="layer101" fill="#00d455" stroke="none">
 <path d="M4486 3593 c-8 -27 -24 -82 -36 -123 -64 -224 -51 -199 -142 -271 -161 -126 -264 -284 -320 -486 -30 -109 -31 -380 -1 -494 l20 -77 -115 -86 c-71 -53 -110 -87 -101 -91 78 -29 339 -107 358 -107 13 0 18 -4 12 -7 -11 -7 73 -126 137 -195 203 -214 534 -303 844 -228 90 22 72 34 172 -111 38 -55 71 -95 75 -90 4 4 22 60 40 123 73 261 64 241 145 305 162 127 276 297 327 490 34 127 37 322 9 464 -12 62 -21 113 -19 115 2 1 53 40 113 86 l109 84 -54 17 c-30 10 -113 36 -185 59 l-131 41 -43 62 c-128 182 -301 308 -500 363 -97 27 -368 25 -463 -3 l-68 -20 -77 113 c-42 62 -80 114 -84 114 -3 0 -13 -21 -22 -47z m770 -1353 c3 0 52 36 109 80 57 44 105 80 108 80 16 0 97 -222 97 -267 0 -10 -81 -13 -406 -13 -344 0 -405 -2 -401 -14 3 -8 40 -62 81 -120 l75 -106 -42 -24 c-56 -33 -132 -62 -184 -71 l-43 -7 0 426 c0 234 -3 426 -6 426 -3 0 -56 -39 -116 -86 -60 -47 -111 -84 -113 -82 -2 2 -17 31 -34 65 -38 74 -61 146 -61 191 l0 32 405 0 c223 0 405 3 405 6 0 3 -36 56 -80 117 l-79 111 47 26 c63 34 129 59 183 68 l44 8 3 -423 c1 -233 5 -423 8 -423z"/>
 <path d="M2684 2823 c2 -10 44 -244 93 -520 l88 -503 137 0 c124 0 136 1 132 18 -8 36 -134 760 -134 771 0 8 105 11 396 11 372 0 395 1 390 18 -2 9 -12 63 -22 120 l-17 102 -534 0 c-504 0 -534 -1 -529 -17z"/>
 <path d="M6424 2830 c-198 -22 -279 -86 -299 -236 -11 -83 39 -397 83 -524 61 -176 153 -253 341 -285 116 -21 487 -29 666 -16 238 18 317 51 366 156 19 41 26 150 13 214 l-6 31 -139 0 -139 0 0 -45 c0 -56 -28 -88 -90 -105 -63 -17 -617 -10 -650 9 -36 20 -70 52 -86 83 -21 40 -64 272 -64 345 0 60 3 67 30 93 43 41 84 45 405 45 258 -1 283 -2 320 -20 35 -18 85 -74 85 -96 0 -5 -110 -9 -245 -9 -227 0 -245 -1 -245 -17 0 -10 8 -64 17 -120 l17 -103 389 0 390 0 -7 53 c-13 95 -46 241 -68 297 -54 138 -130 203 -277 237 -76 17 -683 27 -807 13z"/>
 <path d="M7620 2823 c0 -10 41 -247 90 -528 49 -280 90 -513 90 -517 0 -5 63 -8 140 -8 77 0 140 3 140 8 1 4 -41 244 -92 535 l-93 527 -137 0 c-125 0 -138 -2 -138 -17z"/>
 <path d="M8333 2830 c-194 -21 -265 -95 -248 -260 12 -121 -3 -110 154 -110 l137 0 0 46 c-1 40 3 50 27 68 27 20 42 21 280 24 307 4 350 0 389 -38 37 -37 40 -102 6 -122 -17 -10 -114 -15 -363 -19 -349 -7 -381 -10 -461 -52 -76 -40 -104 -110 -93 -231 10 -99 48 -183 109 -240 84 -79 173 -111 344 -127 165 -16 531 -6 611 16 134 36 196 101 203 211 2 35 1 79 -2 99 l-7 35 -141 0 -140 0 5 -29 c9 -41 -21 -76 -77 -90 -56 -14 -444 -15 -517 -1 -30 6 -62 19 -72 29 -19 19 -35 75 -29 103 7 35 54 40 409 48 325 6 352 8 405 29 66 26 114 74 124 126 9 52 -1 181 -20 242 -43 136 -162 217 -356 243 -86 11 -570 11 -677 0z"/>
 <path d="M9910 2827 c0 -7 31 -190 70 -407 38 -217 70 -398 70 -402 0 -5 -117 -8 -260 -8 -143 0 -260 -3 -260 -7 0 -3 10 -57 21 -120 l21 -113 659 0 659 0 -1 23 c0 12 -8 65 -17 117 l-18 95 -260 3 -260 2 -68 388 c-38 213 -71 399 -73 415 l-5 27 -139 0 c-106 0 -139 -3 -139 -13z"/>
 <path d="M10824 2813 c4 -16 44 -244 91 -508 47 -264 87 -492 91 -507 l6 -28 140 0 140 0 -6 28 c-3 15 -44 248 -91 517 -47 270 -88 498 -91 508 -5 15 -21 17 -145 17 l-141 0 6 -27z"/>
 <path d="M11605 2834 c-274 -29 -345 -119 -309 -393 18 -137 48 -296 71 -366 55 -172 155 -257 346 -292 104 -19 606 -22 711 -4 215 37 296 113 283 266 -10 112 1 105 -153 105 l-134 0 3 -47 c2 -43 0 -48 -33 -67 -33 -20 -49 -21 -335 -21 -260 0 -304 2 -330 17 -69 38 -90 82 -125 269 -30 158 -30 212 -1 243 41 44 94 51 386 51 341 0 356 -4 380 -112 l7 -33 135 0 136 0 -7 39 c-22 143 -82 243 -169 285 -100 49 -165 57 -507 61 -173 1 -333 1 -355 -1z"/>
 <path d="M12970 2829 c-141 -17 -216 -60 -237 -137 -10 -35 -10 -124 0 -184 l8 -48 140 0 139 0 -6 38 c-8 48 16 80 71 92 52 12 518 12 570 0 53 -12 85 -50 85 -100 0 -64 -2 -64 -380 -71 -354 -7 -399 -12 -475 -59 -58 -36 -78 -73 -83 -155 -10 -162 59 -299 187 -368 95 -52 184 -68 426 -74 254 -7 434 7 504 38 110 48 151 107 151 216 0 120 9 113 -152 113 l-140 0 7 -28 c8 -40 -23 -77 -79 -91 -56 -14 -443 -15 -517 -1 -68 13 -99 44 -99 100 0 71 1 71 402 80 363 8 399 12 458 53 73 49 93 111 78 236 -22 188 -106 285 -293 337 -49 14 -117 17 -375 20 -173 1 -349 -2 -390 -7z"/>
 <path d="M3586 1569 c-518 -60 -818 -387 -774 -846 34 -352 294 -609 710 -700 127 -27 435 -25 583 5 61 12 134 29 163 37 l52 16 0 154 c0 87 -4 155 -9 155 -5 0 -45 -13 -88 -29 -270 -102 -581 -102 -777 2 -157 82 -246 238 -246 427 0 152 46 265 143 357 104 99 236 143 424 143 68 0 142 -6 184 -16 l69 -16 0 -239 0 -239 190 0 190 0 -2 337 -3 336 -95 33 c-214 74 -504 108 -714 83z"/>
 <path d="M301 1555 c-35 -8 -112 -38 -170 -67 l-106 -53 -3 -152 c-1 -84 0 -153 2 -153 3 0 53 24 113 54 159 80 236 101 358 100 81 -1 110 -5 153 -24 86 -37 116 -105 78 -177 -25 -49 -71 -81 -216 -150 -267 -128 -296 -143 -353 -188 -118 -93 -161 -183 -155 -323 4 -115 42 -195 128 -275 71 -66 136 -100 249 -128 76 -19 104 -21 255 -16 171 5 280 23 371 61 l35 15 0 150 c0 96 -4 151 -10 151 -6 0 -38 -11 -73 -25 -162 -67 -367 -93 -465 -61 -106 36 -134 121 -65 197 37 41 76 62 373 201 259 122 373 295 330 503 -47 234 -288 376 -635 374 -72 0 -159 -7 -194 -14z"/>
 <path d="M1996 1559 c-446 -65 -717 -378 -693 -799 7 -113 26 -190 72 -287 80 -171 201 -285 398 -378 158 -74 240 -90 467 -90 204 0 253 7 388 57 l52 19 0 155 c0 85 -4 154 -8 154 -5 0 -45 -16 -91 -36 -139 -60 -228 -78 -361 -71 -310 14 -498 179 -525 463 -13 138 37 285 130 383 105 110 224 154 425 155 143 1 239 -20 368 -80 41 -18 77 -34 79 -34 2 0 2 63 1 141 l-3 141 -70 30 c-79 34 -165 61 -243 77 -61 13 -299 13 -386 0z"/>
 </g>
<g id="layer102" fill="#ed1c24" stroke="none">
 <path d="M4302 3194 c-156 -125 -259 -283 -314 -481 -30 -109 -31 -380 -1 -494 l20 -77 -115 -86 c-71 -53 -110 -87 -101 -91 78 -29 339 -107 358 -107 13 0 18 -4 12 -7 -11 -7 73 -126 137 -195 203 -214 534 -303 844 -228 90 22 72 34 172 -111 38 -55 71 -95 75 -90 4 4 22 60 40 123 73 261 64 241 145 305 162 127 276 297 327 490 34 127 37 322 9 464 -12 62 -21 113 -19 115 59 42 219 169 217 171 -2 1 -86 28 -188 59 -268 82 -643 198 -657 203 -10 4 -13 -91 -13 -456 0 -254 3 -461 6 -461 3 0 52 36 109 80 57 44 105 80 108 80 16 0 97 -222 97 -267 0 -10 -81 -13 -406 -13 -344 0 -405 -2 -401 -14 3 -8 40 -62 81 -120 l75 -106 -42 -24 c-56 -33 -132 -62 -184 -71 l-43 -7 0 426 c0 234 -3 426 -6 426 -3 0 -56 -39 -116 -86 -60 -47 -111 -84 -113 -82 -2 2 -17 31 -34 65 -38 74 -61 146 -61 191 0 30 -2 32 -35 32 -19 0 -35 2 -35 4 0 3 34 113 75 247 41 133 75 246 75 250 0 18 -18 7 -98 -57z"/>
 <path d="M2684 2823 c2 -10 44 -244 93 -520 l88 -503 137 0 c124 0 136 1 132 18 -8 36 -134 760 -134 771 0 8 105 11 396 11 372 0 395 1 390 18 -2 9 -12 63 -22 120 l-17 102 -534 0 c-504 0 -534 -1 -529 -17z"/>
 <path d="M6424 2830 c-198 -22 -279 -86 -299 -236 -11 -83 39 -397 83 -524 61 -176 153 -253 341 -285 116 -21 487 -29 666 -16 238 18 317 51 366 156 19 41 26 150 13 214 l-6 31 -139 0 -139 0 0 -45 c0 -56 -28 -88 -90 -105 -63 -17 -617 -10 -650 9 -36 20 -70 52 -86 83 -21 40 -64 272 -64 345 0 60 3 67 30 93 43 41 84 45 405 45 258 -1 283 -2 320 -20 35 -18 85 -74 85 -96 0 -5 -110 -9 -245 -9 -227 0 -245 -1 -245 -17 0 -10 8 -64 17 -120 l17 -103 389 0 390 0 -7 53 c-13 95 -46 241 -68 297 -54 138 -130 203 -277 237 -76 17 -683 27 -807 13z"/>
 <path d="M7620 2823 c0 -10 41 -247 90 -528 49 -280 90 -513 90 -517 0 -5 63 -8 140 -8 77 0 140 3 140 8 1 4 -41 244 -92 535 l-93 527 -137 0 c-125 0 -138 -2 -138 -17z"/>
 <path d="M8333 2830 c-194 -21 -265 -95 -248 -260 12 -121 -3 -110 154 -110 l137 0 0 46 c-1 40 3 50 27 68 27 20 42 21 280 24 307 4 350 0 389 -38 37 -37 40 -102 6 -122 -17 -10 -114 -15 -363 -19 -349 -7 -381 -10 -461 -52 -76 -40 -104 -110 -93 -231 10 -99 48 -183 109 -240 84 -79 173 -111 344 -127 165 -16 531 -6 611 16 134 36 196 101 203 211 2 35 1 79 -2 99 l-7 35 -141 0 -140 0 5 -29 c9 -41 -21 -76 -77 -90 -56 -14 -444 -15 -517 -1 -30 6 -62 19 -72 29 -19 19 -35 75 -29 103 7 35 54 40 409 48 325 6 352 8 405 29 66 26 114 74 124 126 9 52 -1 181 -20 242 -43 136 -162 217 -356 243 -86 11 -570 11 -677 0z"/>
 <path d="M9910 2827 c0 -7 31 -190 70 -407 38 -217 70 -398 70 -402 0 -5 -117 -8 -260 -8 -143 0 -260 -3 -260 -7 0 -3 10 -57 21 -120 l21 -113 659 0 659 0 -1 23 c0 12 -8 65 -17 117 l-18 95 -260 3 -260 2 -68 388 c-38 213 -71 399 -73 415 l-5 27 -139 0 c-106 0 -139 -3 -139 -13z"/>
 <path d="M10824 2813 c4 -16 44 -244 91 -508 47 -264 87 -492 91 -507 l6 -28 140 0 140 0 -6 28 c-3 15 -44 248 -91 517 -47 270 -88 498 -91 508 -5 15 -21 17 -145 17 l-141 0 6 -27z"/>
 <path d="M11605 2834 c-274 -29 -345 -119 -309 -393 18 -137 48 -296 71 -366 55 -172 155 -257 346 -292 104 -19 606 -22 711 -4 215 37 296 113 283 266 -10 112 1 105 -153 105 l-134 0 3 -47 c2 -43 0 -48 -33 -67 -33 -20 -49 -21 -335 -21 -260 0 -304 2 -330 17 -69 38 -90 82 -125 269 -30 158 -30 212 -1 243 41 44 94 51 386 51 341 0 356 -4 380 -112 l7 -33 135 0 136 0 -7 39 c-22 143 -82 243 -169 285 -100 49 -165 57 -507 61 -173 1 -333 1 -355 -1z"/>
 <path d="M12970 2829 c-141 -17 -216 -60 -237 -137 -10 -35 -10 -124 0 -184 l8 -48 140 0 139 0 -6 38 c-8 48 16 80 71 92 52 12 518 12 570 0 53 -12 85 -50 85 -100 0 -64 -2 -64 -380 -71 -354 -7 -399 -12 -475 -59 -58 -36 -78 -73 -83 -155 -10 -162 59 -299 187 -368 95 -52 184 -68 426 -74 254 -7 434 7 504 38 110 48 151 107 151 216 0 120 9 113 -152 113 l-140 0 7 -28 c8 -40 -23 -77 -79 -91 -56 -14 -443 -15 -517 -1 -68 13 -99 44 -99 100 0 71 1 71 402 80 363 8 399 12 458 53 73 49 93 111 78 236 -22 188 -106 285 -293 337 -49 14 -117 17 -375 20 -173 1 -349 -2 -390 -7z"/>
 <path d="M3586 1569 c-518 -60 -818 -387 -774 -846 34 -352 294 -609 710 -700 127 -27 435 -25 583 5 61 12 134 29 163 37 l52 16 0 154 c0 87 -4 155 -9 155 -5 0 -45 -13 -88 -29 -270 -102 -581 -102 -777 2 -157 82 -246 238 -246 427 0 152 46 265 143 357 104 99 236 143 424 143 68 0 142 -6 184 -16 l69 -16 0 -239 0 -239 190 0 190 0 -2 337 -3 336 -95 33 c-214 74 -504 108 -714 83z"/>
 <path d="M301 1555 c-35 -8 -112 -38 -170 -67 l-106 -53 -3 -152 c-1 -84 0 -153 2 -153 3 0 53 24 113 54 159 80 236 101 358 100 81 -1 110 -5 153 -24 86 -37 116 -105 78 -177 -25 -49 -71 -81 -216 -150 -267 -128 -296 -143 -353 -188 -118 -93 -161 -183 -155 -323 4 -115 42 -195 128 -275 71 -66 136 -100 249 -128 76 -19 104 -21 255 -16 171 5 280 23 371 61 l35 15 0 150 c0 96 -4 151 -10 151 -6 0 -38 -11 -73 -25 -162 -67 -367 -93 -465 -61 -106 36 -134 121 -65 197 37 41 76 62 373 201 259 122 373 295 330 503 -47 234 -288 376 -635 374 -72 0 -159 -7 -194 -14z"/>
 <path d="M1996 1559 c-446 -65 -717 -378 -693 -799 7 -113 26 -190 72 -287 80 -171 201 -285 398 -378 158 -74 240 -90 467 -90 204 0 253 7 388 57 l52 19 0 155 c0 85 -4 154 -8 154 -5 0 -45 -16 -91 -36 -139 -60 -228 -78 -361 -71 -310 14 -498 179 -525 463 -13 138 37 285 130 383 105 110 224 154 425 155 143 1 239 -20 368 -80 41 -18 77 -34 79 -34 2 0 2 63 1 141 l-3 141 -70 30 c-79 34 -165 61 -243 77 -61 13 -299 13 -386 0z"/>
 </g>
<g id="layer103" fill="#176fc1" stroke="none">
 <path d="M4302 3194 c-156 -125 -259 -283 -314 -481 -30 -109 -31 -380 -1 -494 l20 -77 -115 -86 c-71 -53 -110 -87 -101 -91 59 -21 338 -106 358 -109 14 -2 129 -36 254 -76 126 -39 231 -69 235 -65 9 9 15 915 6 915 -3 0 -56 -39 -116 -86 -60 -47 -111 -84 -113 -82 -2 2 -17 31 -34 65 -38 74 -61 146 -61 191 0 30 -2 32 -35 32 -19 0 -35 2 -35 4 0 3 34 113 75 247 41 133 75 246 75 250 0 18 -18 7 -98 -57z"/>
 <path d="M5250 2701 c0 -254 3 -461 6 -461 3 0 52 36 109 80 57 44 105 80 108 80 10 0 69 -144 85 -211 18 -71 19 -74 50 -77 18 -2 32 -5 32 -8 0 -3 -31 -114 -70 -246 -38 -133 -70 -245 -70 -250 0 -16 91 55 163 127 175 175 254 364 264 626 5 115 2 154 -17 248 -12 62 -21 113 -19 115 59 42 219 169 217 171 -2 1 -86 28 -188 59 -268 82 -643 198 -657 203 -10 4 -13 -91 -13 -456z"/>
 <path d="M2684 2823 c2 -10 44 -244 93 -520 l88 -503 137 0 c124 0 136 1 132 18 -8 36 -134 760 -134 771 0 8 105 11 396 11 372 0 395 1 390 18 -2 9 -12 63 -22 120 l-17 102 -534 0 c-504 0 -534 -1 -529 -17z"/>
 <path d="M6424 2830 c-198 -22 -279 -86 -299 -236 -11 -83 39 -397 83 -524 61 -176 153 -253 341 -285 116 -21 487 -29 666 -16 238 18 317 51 366 156 19 41 26 150 13 214 l-6 31 -139 0 -139 0 0 -45 c0 -56 -28 -88 -90 -105 -63 -17 -617 -10 -650 9 -36 20 -70 52 -86 83 -21 40 -64 272 -64 345 0 60 3 67 30 93 43 41 84 45 405 45 258 -1 283 -2 320 -20 35 -18 85 -74 85 -96 0 -5 -110 -9 -245 -9 -227 0 -245 -1 -245 -17 0 -10 8 -64 17 -120 l17 -103 389 0 390 0 -7 53 c-13 95 -46 241 -68 297 -54 138 -130 203 -277 237 -76 17 -683 27 -807 13z"/>
 <path d="M7620 2823 c0 -10 41 -247 90 -528 49 -280 90 -513 90 -517 0 -5 63 -8 140 -8 77 0 140 3 140 8 1 4 -41 244 -92 535 l-93 527 -137 0 c-125 0 -138 -2 -138 -17z"/>
 <path d="M8333 2830 c-194 -21 -265 -95 -248 -260 12 -121 -3 -110 154 -110 l137 0 0 46 c-1 40 3 50 27 68 27 20 42 21 280 24 307 4 350 0 389 -38 37 -37 40 -102 6 -122 -17 -10 -114 -15 -363 -19 -349 -7 -381 -10 -461 -52 -76 -40 -104 -110 -93 -231 10 -99 48 -183 109 -240 84 -79 173 -111 344 -127 165 -16 531 -6 611 16 134 36 196 101 203 211 2 35 1 79 -2 99 l-7 35 -141 0 -140 0 5 -29 c9 -41 -21 -76 -77 -90 -56 -14 -444 -15 -517 -1 -30 6 -62 19 -72 29 -19 19 -35 75 -29 103 7 35 54 40 409 48 325 6 352 8 405 29 66 26 114 74 124 126 9 52 -1 181 -20 242 -43 136 -162 217 -356 243 -86 11 -570 11 -677 0z"/>
 <path d="M9910 2827 c0 -7 31 -190 70 -407 38 -217 70 -398 70 -402 0 -5 -117 -8 -260 -8 -143 0 -260 -3 -260 -7 0 -3 10 -57 21 -120 l21 -113 659 0 659 0 -1 23 c0 12 -8 65 -17 117 l-18 95 -260 3 -260 2 -68 388 c-38 213 -71 399 -73 415 l-5 27 -139 0 c-106 0 -139 -3 -139 -13z"/>
 <path d="M10824 2813 c4 -16 44 -244 91 -508 47 -264 87 -492 91 -507 l6 -28 140 0 140 0 -6 28 c-3 15 -44 248 -91 517 -47 270 -88 498 -91 508 -5 15 -21 17 -145 17 l-141 0 6 -27z"/>
 <path d="M11605 2834 c-274 -29 -345 -119 -309 -393 18 -137 48 -296 71 -366 55 -172 155 -257 346 -292 104 -19 606 -22 711 -4 215 37 296 113 283 266 -10 112 1 105 -153 105 l-134 0 3 -47 c2 -43 0 -48 -33 -67 -33 -20 -49 -21 -335 -21 -260 0 -304 2 -330 17 -69 38 -90 82 -125 269 -30 158 -30 212 -1 243 41 44 94 51 386 51 341 0 356 -4 380 -112 l7 -33 135 0 136 0 -7 39 c-22 143 -82 243 -169 285 -100 49 -165 57 -507 61 -173 1 -333 1 -355 -1z"/>
 <path d="M12970 2829 c-141 -17 -216 -60 -237 -137 -10 -35 -10 -124 0 -184 l8 -48 140 0 139 0 -6 38 c-8 48 16 80 71 92 52 12 518 12 570 0 53 -12 85 -50 85 -100 0 -64 -2 -64 -380 -71 -354 -7 -399 -12 -475 -59 -58 -36 -78 -73 -83 -155 -10 -162 59 -299 187 -368 95 -52 184 -68 426 -74 254 -7 434 7 504 38 110 48 151 107 151 216 0 120 9 113 -152 113 l-140 0 7 -28 c8 -40 -23 -77 -79 -91 -56 -14 -443 -15 -517 -1 -68 13 -99 44 -99 100 0 71 1 71 402 80 363 8 399 12 458 53 73 49 93 111 78 236 -22 188 -106 285 -293 337 -49 14 -117 17 -375 20 -173 1 -349 -2 -390 -7z"/>
 </g>
<g id="layer104" fill="#f68712" stroke="none">
 <path d="M5250 2701 c0 -254 3 -461 6 -461 3 0 52 36 109 80 57 44 105 80 108 80 10 0 69 -144 85 -211 18 -71 19 -74 50 -77 18 -2 32 -5 32 -8 0 -3 -31 -114 -70 -246 -38 -133 -70 -245 -70 -250 0 -16 91 55 163 127 175 175 254 364 264 626 5 115 2 154 -17 248 -12 62 -21 113 -19 115 59 42 219 169 217 171 -2 1 -86 28 -188 59 -268 82 -643 198 -657 203 -10 4 -13 -91 -13 -456z"/>
 </g>

</svg>