<!DOCTYPE svg PUBLIC "local" "http://127.0.0.1">
<svg version="1.0" xmlns="http://127.0.0.1" width="1600px" height="1600px" viewBox="0 0 16000 16000" preserveAspectRatio="xMidYMid meet">
<g id="layer101" fill="#e22227" stroke="none">
 <path d="M0 8000 l0 -8000 8000 0 8000 0 0 8000 0 8000 -8000 0 -8000 0 0 -8000z"/>
 </g>
<g id="layer102" fill="#56b049" stroke="none">
 <path d="M0 8000 l0 -8000 8000 0 8000 0 0 8000 0 8000 -8000 0 -8000 0 0 -8000z m12616 -2035 c-6 -16 -116 -378 -416 -1370 -100 -330 -266 -879 -370 -1220 -225 -740 -827 -2729 -878 -2902 -21 -68 -41 -121 -47 -120 -8 3 -1023 1405 -1054 1456 -7 12 -37 6 -177 -37 -503 -154 -1040 -244 -1631 -273 -661 -33 -1404 56 -1993 238 -195 60 -252 79 -405 138 -1090 420 -2030 1199 -2767 2293 -60 90 -107 166 -104 169 3 3 157 -41 343 -97 186 -56 417 -126 513 -155 96 -29 658 -200 1248 -379 591 -179 1080 -326 1088 -326 12 0 14 36 14 214 l0 213 71 7 c424 39 926 192 1380 419 249 125 451 245 441 262 -4 7 -248 340 -542 739 -294 400 -536 731 -538 736 -2 7 1026 10 2913 10 2602 0 2917 -2 2911 -15z"/>
 </g>
<g id="layer103" fill="#336db2" stroke="none">
 <path d="M0 8000 l0 -8000 8000 0 8000 0 0 8000 0 8000 -8000 0 -8000 0 0 -8000z m5123 7603 c19 -27 258 -360 531 -740 274 -381 501 -693 505 -693 5 0 28 7 52 16 116 41 354 106 539 148 900 201 1834 219 2680 50 1512 -303 2763 -1178 3709 -2596 50 -76 88 -138 84 -138 -5 0 -726 218 -1603 484 l-1595 484 -3 -214 c-2 -212 -3 -214 -25 -218 -12 -3 -67 -10 -122 -16 -533 -60 -1150 -287 -1707 -628 l-57 -34 27 -39 c15 -21 259 -352 542 -736 283 -383 516 -703 518 -710 3 -11 -501 -12 -2735 -9 -3043 6 -3057 6 -3074 23 -12 12 -2 58 31 148 4 11 20 61 34 110 69 227 149 475 447 1365 175 525 348 1047 384 1160 71 223 128 430 120 438 -3 3 -17 0 -31 -6 -22 -11 -25 -10 -20 5 19 60 536 1764 632 2083 77 254 94 310 99 310 2 0 19 -21 38 -47z m7493 -9638 c-6 -16 -116 -378 -416 -1370 -100 -330 -266 -879 -370 -1220 -225 -740 -827 -2729 -878 -2902 -21 -68 -41 -121 -47 -120 -8 3 -1023 1405 -1054 1456 -7 12 -37 6 -177 -37 -503 -154 -1040 -244 -1631 -273 -661 -33 -1404 56 -1993 238 -195 60 -252 79 -405 138 -1090 420 -2030 1199 -2767 2293 -60 90 -107 166 -104 169 3 3 157 -41 343 -97 186 -56 417 -126 513 -155 96 -29 658 -200 1248 -379 591 -179 1080 -326 1088 -326 12 0 14 36 14 214 l0 213 71 7 c424 39 926 192 1380 419 249 125 451 245 441 262 -4 7 -248 340 -542 739 -294 400 -536 731 -538 736 -2 7 1026 10 2913 10 2602 0 2917 -2 2911 -15z"/>
 </g>
<g id="layer104" fill="#f1861a" stroke="none">
 <path d="M0 8000 l0 -8000 8000 0 8000 0 0 8000 0 8000 -8000 0 -8000 0 0 -8000z m5123 7603 c19 -27 258 -360 531 -740 274 -381 501 -693 505 -693 5 0 28 7 52 16 116 41 354 106 539 148 900 201 1834 219 2680 50 1512 -303 2763 -1178 3709 -2596 50 -76 88 -138 84 -138 -5 0 -726 218 -1603 484 l-1595 484 -3 -214 c-2 -212 -3 -214 -25 -218 -12 -3 -67 -10 -122 -16 -533 -60 -1150 -287 -1707 -628 l-57 -34 27 -39 c15 -21 259 -352 542 -736 283 -383 516 -703 518 -710 3 -11 -510 -13 -2704 -13 l-2707 0 8 -102 c19 -277 70 -515 172 -798 90 -247 205 -477 425 -847 60 -101 95 -150 102 -144 6 4 90 66 186 136 151 111 720 530 935 690 280 207 346 255 355 255 7 0 10 -912 10 -2696 l0 -2697 71 7 c424 39 926 192 1380 419 249 125 451 245 441 262 -4 7 -248 340 -542 739 -294 400 -536 731 -538 736 -2 7 1026 10 2913 10 2602 0 2917 -2 2911 -15 -6 -16 -116 -378 -416 -1370 -100 -330 -266 -879 -370 -1220 -225 -740 -827 -2729 -878 -2902 -21 -68 -41 -121 -47 -120 -8 3 -1023 1405 -1054 1456 -7 12 -37 6 -177 -37 -503 -154 -1040 -244 -1631 -273 -661 -33 -1404 56 -1993 238 -195 60 -252 79 -405 138 -1106 426 -2056 1221 -2800 2343 l-88 132 -71 21 c-71 21 -225 67 -786 238 -378 115 -607 184 -745 226 -60 18 -184 56 -275 83 -91 28 -248 76 -349 107 -102 30 -186 57 -188 59 -2 2 56 46 129 98 73 52 248 177 388 278 415 298 707 508 832 597 64 46 120 88 123 93 4 6 -5 45 -19 88 -259 796 -360 1781 -270 2632 34 326 68 521 139 815 146 599 400 1176 750 1705 442 668 1072 1282 1816 1769 l117 76 65 215 c291 957 519 1710 573 1890 77 254 94 310 99 310 2 0 19 -21 38 -47z"/>
 </g>
<g id="layer105" fill="#ffffff" stroke="none">
 <path d="M0 8000 l0 -8000 8000 0 8000 0 0 8000 0 8000 -8000 0 -8000 0 0 -8000z m5123 7603 c19 -27 258 -360 531 -740 274 -381 501 -693 505 -693 5 0 28 7 52 16 116 41 354 106 539 148 809 181 1638 213 2420 95 1283 -194 2427 -815 3314 -1799 260 -288 433 -511 667 -860 l84 -125 155 -47 c85 -25 603 -182 1150 -348 547 -167 1021 -310 1053 -318 31 -9 57 -19 57 -22 0 -3 -333 -243 -740 -535 -612 -439 -739 -533 -736 -550 3 -11 25 -87 51 -170 262 -845 341 -1870 214 -2765 -233 -1648 -1135 -3027 -2630 -4023 l-166 -111 -322 -1061 c-176 -583 -340 -1124 -363 -1202 -24 -79 -47 -141 -53 -140 -8 3 -1023 1405 -1054 1456 -7 12 -37 6 -177 -37 -503 -154 -1040 -244 -1631 -273 -661 -33 -1404 56 -1993 238 -195 60 -252 79 -405 138 -1106 426 -2056 1221 -2800 2343 l-88 132 -71 21 c-71 21 -225 67 -786 238 -378 115 -607 184 -745 226 -60 18 -184 56 -275 83 -91 28 -248 76 -349 107 -102 30 -186 57 -188 59 -2 2 56 46 129 98 73 52 248 177 388 278 415 298 707 508 832 597 64 46 120 88 123 93 4 6 -5 45 -19 88 -259 796 -360 1781 -270 2632 34 326 68 521 139 815 146 599 400 1176 750 1705 442 668 1072 1282 1816 1769 l117 76 65 215 c291 957 519 1710 573 1890 77 254 94 310 99 310 2 0 19 -21 38 -47z"/>
 <path d="M9870 12170 c-566 -73 -1143 -286 -1702 -628 l-57 -34 27 -39 c15 -21 259 -352 542 -736 283 -383 516 -703 518 -710 3 -11 -510 -13 -2704 -13 l-2707 0 8 -102 c19 -277 70 -515 172 -798 90 -247 205 -477 425 -847 60 -101 95 -150 102 -144 6 4 90 66 186 136 151 111 720 530 935 690 280 207 346 255 355 255 7 0 10 -912 10 -2696 l0 -2697 71 7 c424 39 926 192 1380 419 249 125 451 245 441 262 -4 7 -248 340 -542 739 -294 400 -536 731 -538 736 -2 7 949 10 2695 10 l2699 0 -8 78 c-37 355 -153 780 -314 1151 -116 266 -344 678 -367 664 -7 -4 -82 -59 -167 -122 -147 -108 -327 -241 -1003 -740 -159 -117 -294 -214 -300 -217 -9 -3 -11 622 -9 2688 1 1480 -1 2695 -5 2699 -5 3 -69 -2 -143 -11z"/>
 </g>

</svg>